<?xml version="1.0" standalone="no"?>
<!DOCTYPE svg PUBLIC "-//W3C//DTD SVG 20010904//EN"
 "http://www.w3.org/TR/2001/REC-SVG-20010904/DTD/svg10.dtd">
<svg version="1.0" xmlns="http://www.w3.org/2000/svg"
 width="650.000000pt" height="700.000000pt" viewBox="0 0 650.000000 700.000000"
 preserveAspectRatio="xMidYMid meet">
<metadata>
Created by potrace 1.16, written by Peter Selinger 2001-2019
</metadata>
<g transform="translate(0.000000,700.000000) scale(0.100000,-0.100000)"
fill="#000000" stroke="none">
<path d="M3321 6855 c-21 -19 -54 -58 -72 -85 -19 -27 -42 -52 -51 -55 -23 -8
-55 14 -68 46 -31 74 -190 75 -233 2 -17 -31 -18 -36 -3 -87 9 -30 16 -57 16
-60 0 -17 -30 -2 -61 30 -42 45 -126 100 -181 120 -23 8 -95 17 -159 20 -107
5 -123 3 -188 -19 -141 -49 -302 -171 -396 -298 -92 -125 -157 -334 -195 -624
-34 -266 -95 -481 -190 -675 -48 -97 -74 -141 -204 -338 -60 -90 -121 -193
-137 -229 -65 -141 -88 -220 -35 -115 13 26 33 58 45 72 l21 25 -7 -40 c-15
-78 -9 -266 11 -340 22 -82 36 -103 36 -54 0 47 28 202 46 258 21 62 98 221
119 246 l17 20 -7 -20 c-33 -103 -86 -398 -73 -411 2 -2 23 43 47 100 23 56
60 133 81 171 22 37 40 71 40 76 0 4 5 11 11 15 15 9 5 -22 -38 -121 -60 -136
-78 -174 -170 -370 -237 -502 -327 -724 -360 -885 -28 -142 -16 -376 28 -525
18 -58 83 -205 92 -205 1 0 1 46 -1 102 -4 100 12 263 28 273 4 2 15 -28 25
-68 45 -184 102 -317 223 -518 115 -191 153 -278 186 -429 l14 -65 1 95 c0 52
-4 126 -9 165 -5 38 -7 71 -6 73 2 1 18 -21 37 -50 18 -29 54 -83 81 -119 26
-37 48 -73 48 -80 -1 -21 -32 -110 -95 -269 -32 -80 -58 -158 -58 -174 0 -69
92 -96 261 -77 61 7 108 8 123 3 23 -9 23 -10 -11 -17 -142 -30 -427 -149
-578 -241 -135 -82 -407 -313 -389 -330 4 -4 35 -1 69 7 88 20 230 18 300 -4
l58 -17 -84 -113 c-102 -138 -152 -218 -227 -368 -56 -111 -109 -240 -109
-266 0 -9 20 -13 65 -13 52 0 65 3 65 16 0 8 5 12 10 9 6 -4 8 -11 5 -16 -4
-5 11 -8 32 -8 23 1 29 3 15 6 -27 5 -29 23 -2 23 11 0 20 7 20 16 0 8 5 12
10 9 6 -4 8 -11 5 -16 -4 -5 -1 -9 5 -9 8 0 10 9 6 26 -6 21 -4 25 8 21 20 -8
27 2 16 23 -7 13 -4 27 13 51 12 19 31 62 41 97 11 34 26 68 34 74 8 7 56 14
111 16 92 4 99 3 165 -29 48 -23 92 -56 148 -110 43 -42 78 -83 78 -91 0 -8
-6 -36 -14 -61 -14 -47 -14 -47 10 -47 13 0 34 10 45 21 17 17 23 19 30 8 7
-11 9 -10 9 5 0 11 -5 16 -14 13 -8 -3 -22 0 -31 7 -15 11 -16 21 -6 105 15
120 29 153 75 175 39 18 71 16 133 -9 24 -10 31 -19 28 -34 -7 -38 -14 -40
-62 -26 -37 11 -49 12 -55 2 -6 -9 -8 -9 -8 1 0 6 -4 12 -10 12 -19 0 -10 -17
15 -28 31 -14 33 -32 3 -24 -18 4 -20 2 -15 -17 3 -15 1 -21 -6 -18 -7 2 -11
17 -10 33 2 20 0 25 -6 15 -5 -7 -14 -10 -21 -6 -9 6 -9 2 1 -16 21 -40 35
-50 48 -35 6 7 9 15 6 18 -3 3 7 5 22 6 71 2 92 13 103 53 6 21 31 62 55 90
30 35 45 62 45 80 0 15 5 31 10 34 6 3 10 11 10 16 0 6 -5 7 -10 4 -6 -4 12
16 40 44 51 51 55 61 53 151 0 14 2 27 6 30 3 3 17 28 31 57 14 28 28 50 31
48 3 -2 5 6 5 18 -1 12 4 22 9 23 6 0 18 4 29 9 12 5 21 3 27 -6 5 -9 9 -10 9
-2 0 6 -7 18 -15 26 -8 8 -11 18 -7 22 4 4 7 10 8 13 2 19 37 92 44 92 5 0 13
12 18 28 9 22 11 23 12 7 2 -14 4 -10 9 10 3 17 11 29 16 28 6 0 19 4 30 10
11 6 25 10 31 9 13 -3 25 28 30 69 1 14 12 45 24 69 12 23 17 39 12 36 -6 -3
-26 1 -46 9 -19 8 -53 15 -75 15 -38 0 -40 2 -47 34 -8 46 10 96 46 131 33 31
30 32 115 -20 22 -14 47 -25 55 -25 8 0 0 9 -18 20 -18 11 -30 25 -27 30 10
17 73 22 110 10 41 -14 44 -39 7 -55 -22 -10 -30 -25 -12 -25 5 0 22 14 37 30
l27 30 30 -29 c50 -47 93 -64 145 -57 43 5 57 0 193 -68 188 -95 307 -126 482
-126 126 0 125 0 226 65 73 48 120 91 120 111 0 10 7 11 30 3 28 -10 43 -39
19 -39 -5 0 -7 5 -3 12 4 7 3 8 -4 4 -7 -4 -12 -2 -12 5 0 7 -2 10 -5 8 -4 -5
15 -66 28 -86 4 -6 4 -19 1 -30 -5 -15 -4 -15 5 -3 6 9 11 10 11 3 0 -6 9 -15
20 -18 11 -3 24 -14 29 -24 8 -14 36 -157 56 -283 10 -67 84 -268 85 -232 0
12 -7 35 -15 50 -17 33 -22 70 -6 45 7 -11 10 -7 14 15 2 17 4 10 4 -19 0 -50
9 -70 23 -48 10 17 63 8 99 -16 15 -10 57 -32 96 -50 38 -18 71 -37 73 -43 2
-5 17 -10 34 -10 23 0 29 -4 24 -15 -3 -10 1 -15 13 -15 10 0 21 -7 25 -15 3
-8 12 -15 19 -15 8 0 19 -11 25 -25 6 -14 18 -25 27 -25 8 0 15 -3 15 -7 0
-14 50 -66 57 -60 9 10 35 -31 28 -43 -8 -12 33 -72 45 -65 4 3 12 -1 17 -8
16 -19 80 -145 117 -229 19 -43 39 -78 45 -78 11 0 2 25 -64 180 -43 101 -43
101 -29 107 6 2 26 -19 44 -47 18 -27 39 -50 47 -50 8 0 28 -13 44 -29 25 -26
29 -37 29 -85 0 -31 5 -56 10 -56 15 0 12 96 -5 136 -10 24 -26 39 -49 49 -44
19 -106 106 -106 150 0 16 -9 62 -20 100 -11 38 -20 72 -20 74 0 5 87 -111
138 -183 23 -34 63 -99 89 -146 61 -114 115 -201 120 -196 2 2 -21 55 -52 117
-113 224 -281 443 -531 693 -83 82 -154 166 -154 181 0 5 -34 40 -75 78 -41
38 -75 77 -75 86 0 22 -34 54 -83 76 -48 22 -54 36 -33 79 33 71 9 144 -55
170 -36 15 -42 15 -71 0 -16 -9 -50 -34 -75 -57 -41 -38 -45 -39 -61 -23 -15
15 -18 49 -22 279 -6 288 -6 286 55 286 17 0 57 -5 90 -12 54 -12 63 -17 103
-67 126 -158 254 -299 319 -352 142 -116 281 -192 400 -218 43 -10 49 -9 99
22 79 47 210 176 233 229 11 24 25 85 31 134 6 50 17 140 25 200 8 61 17 144
20 185 10 114 38 196 238 700 99 249 247 642 247 655 0 3 16 46 35 95 53 136
50 147 -51 178 -53 16 -60 21 -71 54 -7 20 -13 58 -14 85 -2 61 -55 201 -86
231 -29 26 -54 18 -77 -26 l-15 -27 -80 84 -80 84 -55 -13 -54 -13 -40 42
c-33 35 -45 41 -79 41 -23 0 -59 -10 -87 -25 -26 -14 -63 -25 -83 -25 -29 0
-44 -8 -84 -49 -26 -27 -68 -65 -93 -85 l-44 -37 -74 19 c-40 11 -118 32 -173
46 -98 26 -100 26 -125 8 -25 -18 -88 -171 -89 -217 -1 -30 -21 -95 -29 -95
-4 0 -43 27 -87 60 -102 77 -182 116 -270 130 -38 6 -81 17 -95 24 -98 52
-255 66 -353 31 -45 -15 -50 -15 -67 0 -10 9 -32 52 -50 94 -41 102 -69 142
-125 177 -31 20 -45 36 -45 51 0 24 37 132 50 147 5 5 30 -2 56 -15 26 -12 71
-24 98 -27 69 -5 93 14 226 185 59 76 118 148 131 160 35 31 129 84 129 72 0
-15 -29 -69 -57 -106 -29 -39 -25 -41 26 -8 133 83 186 180 206 378 l7 58 39
-36 c34 -30 59 -44 59 -31 0 2 -12 25 -27 52 -25 43 -28 60 -28 134 0 95 17
136 74 178 44 32 93 108 117 182 l22 65 7 -37 c12 -65 25 -42 25 45 0 51 -8
115 -20 163 -37 146 -135 319 -214 379 -35 26 -35 27 -30 88 4 36 1 74 -5 91
-11 27 -14 28 -55 23 -52 -7 -91 14 -82 46 8 30 -17 80 -63 126 l-42 42 -43
-26 c-23 -14 -53 -25 -66 -25 -20 0 -22 3 -17 36 8 45 -6 80 -46 122 -39 42
-83 65 -105 57 -9 -3 -32 -25 -50 -49 -22 -29 -43 -46 -63 -50 -40 -8 -49 -1
-49 32 0 76 -65 94 -129 37z m97 3 c7 -7 12 -26 12 -44 0 -58 6 -62 58 -52 26
6 53 17 60 26 6 9 12 11 12 5 0 -6 -7 -16 -16 -24 -12 -10 -15 -29 -12 -86 2
-60 0 -73 -12 -73 -67 -2 -181 -12 -208 -20 -31 -8 -33 -7 -48 28 -39 92 -26
141 56 216 41 37 77 45 98 24z m249 -8 c18 -10 44 -37 59 -59 30 -46 27 -85
-10 -120 -20 -19 -22 -28 -16 -61 4 -22 6 -41 4 -43 -3 -2 -28 4 -57 14 -28
10 -60 18 -71 19 -17 0 -18 7 -14 103 5 109 24 167 56 167 9 0 31 -9 49 -20z
m-599 -71 c29 -14 49 -33 60 -55 11 -24 22 -34 39 -34 17 0 27 -11 44 -50 13
-30 28 -50 37 -50 24 0 -15 -25 -58 -38 -65 -19 -135 -47 -148 -59 -7 -7 -17
-13 -22 -13 -11 0 -95 157 -110 207 -15 50 -3 78 43 98 44 19 64 18 115 -6z
m-467 -47 c57 -28 72 -21 21 11 l-27 16 26 1 c41 0 160 -65 208 -114 25 -25
42 -48 38 -52 -3 -3 -26 2 -50 11 -40 15 -47 15 -73 2 -41 -22 -113 -95 -135
-139 -10 -21 -19 -58 -19 -83 0 -69 -15 -78 -66 -40 -89 69 -126 80 -268 82
-70 1 -131 4 -134 8 -3 3 1 5 9 6 9 0 7 3 -4 8 -21 8 -16 11 76 50 56 24 60
38 12 47 -19 3 -38 10 -41 15 -3 5 -15 9 -27 9 -43 0 14 38 82 56 75 19 150
14 237 -16 71 -25 79 -25 33 0 -68 36 -173 59 -258 56 l-80 -2 37 25 c78 53
139 71 247 71 89 0 106 -4 156 -28z m1321 -64 c17 -18 37 -48 45 -66 12 -30
12 -37 -2 -58 -8 -13 -12 -23 -8 -23 16 4 43 -14 43 -28 0 -11 7 -14 23 -10
89 21 85 22 97 -21 6 -23 7 -55 3 -75 l-8 -36 -90 60 c-49 34 -100 65 -112 70
-13 5 -23 12 -23 16 0 5 -14 8 -31 9 -48 2 -54 14 -38 86 7 35 14 67 14 71 0
10 35 37 48 37 5 0 23 -15 39 -32z m-1102 -93 c9 -10 23 -14 44 -10 27 5 34 1
58 -33 49 -70 47 -81 -22 -141 -34 -30 -65 -64 -70 -77 -11 -27 -41 -28 -80
-2 -14 8 -42 19 -63 22 -92 16 -103 93 -26 180 56 64 132 93 159 61z m775 -5
c19 -5 -3 -6 -60 -3 -178 10 -353 -39 -490 -139 -38 -28 -75 -51 -82 -51 -7 0
-10 -3 -8 -7 3 -4 -4 -15 -15 -25 -11 -10 -20 -13 -20 -8 0 6 7 14 16 17 12 5
14 9 5 20 -14 16 11 42 30 30 7 -4 9 -3 5 4 -21 34 260 155 398 170 71 8 178
4 221 -8z m-85 -62 l9 -23 0 23 c1 19 5 22 24 17 12 -4 37 -18 54 -32 25 -18
31 -20 26 -7 -5 13 -2 16 10 11 8 -3 18 -1 20 6 2 8 28 -1 77 -26 40 -21 75
-36 77 -33 3 2 -4 11 -16 18 -12 7 -21 16 -21 21 0 7 39 1 70 -10 8 -4 18 -7
23 -8 4 -2 8 -3 10 -5 1 -1 11 -3 23 -4 60 -7 266 -153 327 -232 69 -90 159
-315 156 -393 -1 -17 -6 -7 -16 29 -22 85 -29 78 -25 -24 3 -72 0 -107 -13
-147 -29 -87 -60 -121 -81 -87 -4 6 -3 8 3 5 6 -4 10 11 11 36 6 210 5 264 -5
282 -9 16 -10 6 -6 -48 6 -89 -12 -197 -43 -259 -14 -27 -28 -47 -32 -44 -3 4
-1 11 5 17 6 6 9 17 7 24 -3 7 1 28 9 47 8 20 12 41 7 47 -4 8 -11 2 -20 -19
-7 -17 -21 -35 -30 -40 -16 -9 -16 -7 1 27 12 23 15 41 10 51 -6 10 0 41 15
85 28 83 31 172 8 241 -9 26 -17 46 -19 44 -1 -2 3 -38 8 -82 8 -57 7 -94 -1
-133 -12 -58 -55 -158 -78 -181 -12 -12 -13 -8 -8 25 3 21 9 43 12 48 8 13 31
99 27 103 -1 1 -15 -23 -30 -55 -24 -52 -28 -56 -40 -40 -13 18 -13 74 0 190
11 89 -10 69 -23 -23 -10 -72 -40 -158 -42 -120 0 12 -2 12 -9 2 -5 -8 -10 50
-13 140 -6 193 -24 242 -29 81 -4 -108 -5 -113 -48 -196 -40 -78 -113 -185
-80 -117 15 30 49 140 43 140 -2 0 -13 -18 -24 -41 l-21 -41 -21 24 c-20 23
-21 45 -3 158 4 24 0 18 -13 -20 -23 -68 -36 -92 -66 -125 -23 -24 -24 -25
-19 -5 4 13 0 26 -8 32 -11 8 -10 9 4 4 9 -3 17 -1 17 3 0 5 -5 11 -11 13 -7
2 -7 23 1 70 7 36 9 107 6 159 -3 52 -5 103 -6 114 0 17 -2 17 -10 5 -5 -8
-10 -67 -10 -131 0 -64 -3 -132 -7 -150 -7 -33 -7 -33 -14 -9 -4 14 -8 41 -8
60 -2 44 -16 24 -26 -38 -6 -39 -8 -41 -20 -25 -7 10 -12 20 -10 23 2 3 -3 39
-10 80 -7 41 -11 80 -8 85 3 6 1 5 -6 -1 -13 -12 -31 -109 -31 -171 0 -67 -15
-58 -33 20 -28 120 -31 193 -13 300 10 54 19 106 22 115 5 14 4 14 -4 2 -5 -8
-19 -53 -32 -100 -23 -87 -40 -130 -39 -100 0 8 4 34 8 58 14 72 -6 32 -24
-48 -11 -52 -16 -109 -14 -187 2 -61 0 -115 -5 -120 -5 -4 -5 2 -2 15 5 14 3
22 -4 22 -6 0 -9 4 -5 9 3 6 -3 25 -13 43 -10 18 -26 70 -35 114 -15 73 -15
88 -2 135 28 103 28 107 5 69 l-21 -35 6 30 c3 17 8 39 11 50 4 16 3 17 -5 5
-19 -26 -40 -111 -56 -224 -18 -131 -18 -197 -1 -293 7 -40 9 -70 5 -67 -12 7
-49 131 -49 163 0 36 -11 71 -21 71 -5 0 -10 -24 -10 -52 -1 -29 -4 -41 -6
-25 -2 15 -9 27 -14 27 -6 0 -7 6 -1 17 7 12 5 24 -6 42 -23 34 -22 174 2 218
26 50 37 85 26 78 -37 -23 -108 -216 -135 -366 -15 -82 -21 -218 -12 -259 3
-14 8 -43 12 -65 11 -77 -13 -12 -34 94 -23 115 -26 157 -11 166 6 3 10 14 9
23 0 14 -2 13 -9 -3 -9 -20 -9 -20 -9 1 -1 11 4 25 11 32 6 6 13 19 14 28 2
14 0 14 -17 -2 -18 -16 -19 -16 -19 0 0 9 5 14 10 11 6 -3 10 -4 10 -1 0 2 3
12 7 22 4 12 3 15 -5 10 -15 -9 -16 -12 8 89 22 96 43 151 67 177 9 10 11 18
6 18 -19 0 -70 -93 -98 -178 -30 -91 -43 -103 -26 -22 14 66 14 87 0 73 -6 -6
-11 -17 -13 -24 -1 -8 -9 -27 -18 -44 -27 -52 -69 -158 -84 -215 l-14 -55 6
65 c6 72 25 157 54 239 11 30 18 56 16 58 -2 2 -14 -12 -26 -31 -31 -52 -41
-44 -15 11 16 33 21 53 15 69 -18 45 152 208 250 239 22 7 23 6 11 -9 -11 -13
1 -11 53 9 37 14 82 25 101 25 18 0 46 5 60 10 23 9 26 8 21 -5 -7 -19 8 -19
24 0 7 8 27 19 44 24 17 5 32 10 34 10 1 1 7 -9 12 -21z m-1055 -147 c70 -31
97 -58 82 -81 -10 -18 -12 -18 -36 -1 -55 38 -94 46 -211 45 -63 0 -128 -3
-145 -7 -26 -6 -27 -6 -10 5 11 6 22 14 25 18 3 3 28 16 55 28 65 28 167 25
240 -7z m-7 -86 c28 -9 54 -20 57 -25 9 -14 -4 -52 -15 -45 -13 8 -262 8 -281
0 -19 -7 -62 32 -56 49 10 31 213 45 295 21z m252 -104 c30 -22 34 -40 15 -65
-12 -16 -17 -17 -30 -6 -8 7 -15 9 -15 4 0 -5 -5 -2 -10 6 -6 10 -10 11 -10 3
0 -7 -8 -13 -17 -14 -10 0 -4 -5 13 -10 39 -11 56 -31 48 -54 -5 -11 -13 -15
-28 -11 -11 3 -45 9 -73 12 -68 9 -75 18 -63 83 12 67 25 89 52 93 27 5 82
-15 118 -41z m790 -316 c21 -11 31 -25 36 -50 7 -38 24 -48 24 -14 0 12 5 19
13 16 8 -2 11 -19 9 -46 -3 -43 9 -54 28 -23 8 13 9 11 4 -13 -4 -16 -11 -38
-16 -48 -17 -34 0 -29 37 10 21 22 34 30 31 20 -3 -10 -6 -23 -6 -28 0 -6 -4
-8 -9 -5 -5 4 -7 -2 -4 -13 3 -10 -2 -32 -11 -49 -21 -40 -20 -48 3 -48 11 0
19 3 18 6 -2 7 78 80 87 80 4 0 2 -9 -4 -20 -6 -11 -7 -20 -2 -20 15 0 89 84
129 147 27 41 38 53 41 40 4 -18 -11 -96 -24 -131 -5 -14 -4 -17 4 -12 7 4 12
1 12 -7 0 -8 -8 -17 -18 -19 -24 -7 -76 -86 -102 -154 -26 -70 -16 -129 42
-243 l43 -84 -59 -53 c-68 -62 -67 -71 2 -18 65 49 78 76 55 111 -13 20 -14
28 -5 31 9 3 10 8 2 17 -7 9 -6 16 5 25 22 18 48 115 40 149 -5 26 -4 29 14
24 34 -9 44 -30 38 -81 -2 -26 -8 -55 -12 -64 -5 -13 -2 -18 9 -18 36 0 10
-122 -50 -242 -18 -36 -38 -69 -44 -73 -5 -3 -10 -11 -10 -17 0 -7 14 1 32 18
39 36 26 16 -67 -101 -38 -48 -114 -143 -167 -211 -84 -106 -103 -125 -139
-135 -107 -33 -285 65 -470 257 -71 74 -199 248 -199 270 0 31 -39 54 -91 54
-90 0 -156 56 -212 177 -28 62 -31 220 -4 270 21 40 44 63 63 63 30 0 26 -31
-10 -70 -20 -22 -36 -46 -36 -53 0 -6 12 0 25 16 28 32 35 34 35 8 0 -11 11
-28 25 -39 l24 -19 -20 -37 c-14 -27 -19 -52 -17 -89 3 -46 7 -54 35 -72 21
-12 36 -33 43 -55 13 -44 38 -75 68 -82 23 -6 57 16 47 32 -3 5 -7 21 -9 37
-3 15 -7 38 -10 51 -8 34 9 18 43 -42 17 -30 67 -91 112 -135 78 -78 117 -105
85 -59 -21 30 -20 45 2 25 22 -20 154 -97 166 -97 4 0 -7 19 -26 43 -33 41
-57 82 -114 197 l-26 54 36 -32 c35 -30 116 -78 116 -68 0 3 -16 34 -35 69
-32 58 -95 215 -95 236 0 5 9 11 20 14 23 6 27 -12 8 -32 -8 -8 0 -7 20 4 24
12 32 21 27 33 -5 14 -3 13 14 -2 10 -9 42 -23 70 -31 58 -15 153 -19 131 -5
-12 7 -11 12 3 27 42 48 55 124 31 188 -6 14 -3 14 29 -1 24 -12 41 -30 53
-58 23 -51 40 -70 49 -56 4 6 4 22 1 36 -7 28 9 32 40 9 29 -22 37 -18 14 7
-12 14 -16 24 -10 26 6 2 17 -4 24 -13 10 -14 15 -15 21 -5 6 9 4 11 -5 5 -10
-6 -12 -2 -8 17 4 21 1 24 -16 21 -12 -3 -32 0 -46 6 -25 10 -25 10 -2 10 14
1 21 5 16 12 -4 8 0 8 15 0 17 -9 20 -9 15 3 -3 8 -32 24 -65 36 -49 19 -64
30 -79 59 -10 20 -28 46 -39 58 -12 12 -21 32 -20 45 0 15 3 18 6 8 9 -24 95
-141 100 -136 2 2 0 21 -5 42 -18 71 -23 124 -12 124 6 0 24 -7 40 -15z m-679
-837 c55 -107 119 -190 248 -318 52 -52 94 -98 93 -102 -1 -4 6 -4 15 -1 12 5
15 2 10 -10 -3 -9 -1 -19 4 -23 6 -3 8 -15 6 -26 -5 -19 -5 -19 14 -2 20 18
20 18 0 26 -23 8 -28 18 -8 18 6 0 25 -10 40 -23 l28 -22 -19 -55 c-11 -31
-22 -89 -26 -129 -3 -41 -7 -76 -9 -77 -2 -2 -43 10 -91 26 -84 29 -172 74
-282 146 -54 35 -158 84 -180 84 -23 0 -23 15 -4 91 16 65 38 174 71 345 9 47
13 52 41 58 26 5 29 8 18 21 -8 10 -9 15 -1 15 6 0 20 -19 32 -42z m114 -663
c28 -10 70 -28 95 -40 25 -13 77 -32 117 -44 79 -24 114 -55 112 -100 l-2 -26
-4 25 c-6 29 -31 60 -49 60 -34 0 -39 -74 -28 -390 5 -157 -3 -223 -28 -228
-17 -3 -152 137 -258 268 -63 79 -140 224 -145 275 -4 40 -15 67 -34 81 -23
17 0 39 55 53 33 8 44 16 40 26 -3 9 0 12 10 8 18 -7 18 2 -2 21 -14 15 -13
16 6 16 12 0 19 4 16 8 -8 13 44 6 99 -13z m-681 -24 c48 -16 101 -40 120 -54
38 -29 45 -62 12 -52 -78 22 -144 12 -195 -31 -41 -34 -71 -119 -71 -199 0
-56 5 -74 40 -141 23 -42 40 -77 38 -78 -2 -1 -39 -12 -83 -25 -44 -12 -115
-37 -158 -56 -62 -26 -75 -29 -62 -15 10 11 21 17 25 15 4 -3 19 4 31 15 18
14 20 19 8 20 -8 0 -24 -7 -35 -15 -10 -8 -27 -15 -37 -15 -10 0 -30 -8 -45
-17 l-27 -17 18 21 c18 21 18 21 -2 28 -12 3 -21 11 -21 17 0 16 -47 68 -55
60 -5 -4 -5 -2 -2 4 8 13 -13 84 -25 84 -4 0 -8 8 -8 19 0 10 -7 24 -15 31
-19 16 -19 25 4 97 10 32 17 71 14 86 -19 99 247 267 399 251 25 -2 85 -17
132 -33z m202 -36 c27 -8 73 -31 101 -52 44 -32 191 -205 297 -348 43 -58 260
-318 304 -364 29 -31 53 -43 112 -61 41 -12 100 -30 130 -40 30 -10 110 -35
178 -56 113 -35 127 -37 170 -26 147 35 232 58 232 62 -1 3 -17 18 -38 33 -73
55 -199 177 -254 244 -53 65 -203 301 -196 309 2 2 26 -14 52 -34 40 -30 59
-57 105 -146 48 -95 67 -121 146 -198 49 -49 143 -130 207 -179 65 -49 122
-98 128 -109 21 -40 8 -43 -25 -5 l-34 40 -58 -17 c-32 -9 -96 -29 -142 -43
-46 -14 -102 -25 -125 -25 -23 0 -100 18 -171 41 -77 24 -160 43 -203 46 l-74
6 25 -50 c25 -49 26 -49 93 -62 37 -7 127 -28 198 -48 162 -44 203 -42 389 21
l132 44 3 -39 c2 -21 -1 -92 -6 -158 -8 -94 -18 -145 -48 -236 l-37 -116 -81
-56 c-45 -31 -117 -84 -161 -118 -220 -169 -472 -284 -622 -285 l-51 0 -67 86
c-79 101 -119 169 -109 185 4 7 3 10 -2 7 -5 -4 -24 17 -42 45 l-33 52 34 -35
c19 -19 33 -38 30 -42 -2 -5 1 -8 6 -8 17 0 13 19 -9 47 -11 14 -20 30 -20 36
0 6 7 2 16 -9 15 -19 15 -18 11 3 -3 12 0 24 5 25 7 3 8 30 3 76 -4 40 -11 70
-15 67 -13 -8 -17 36 -7 67 5 16 14 25 20 21 6 -3 7 -1 3 6 -4 6 8 40 27 74
84 153 98 257 51 370 -14 34 -63 118 -109 187 -45 69 -116 181 -156 250 -137
234 -327 483 -404 529 -18 11 -17 12 10 6 17 -3 53 -12 81 -20z m827 3 c45
-31 50 -39 114 -168 68 -135 185 -336 255 -435 l49 -70 -42 45 c-22 25 -56 68
-74 95 -50 75 -146 247 -151 269 -2 10 -10 26 -17 35 -8 9 -30 46 -51 84 -20
37 -42 68 -49 69 -7 0 -17 2 -23 2 -22 2 -44 29 -39 47 3 9 1 20 -5 24 -11 7
-14 25 -4 25 3 0 20 -10 37 -22z m1979 -69 c12 -6 33 -25 47 -42 40 -47 70
-74 139 -124 35 -25 68 -55 72 -67 9 -21 9 -21 9 1 1 16 -18 37 -71 76 -101
75 -106 82 -67 96 18 6 38 11 46 11 8 0 68 -53 133 -118 l120 -119 -2 -69 c-2
-110 25 -215 48 -191 4 4 -1 16 -11 27 -15 17 -18 37 -17 134 l0 114 -39 35
c-33 30 -38 39 -30 58 12 33 36 46 55 30 19 -16 76 -164 76 -199 0 -15 7 -64
16 -110 16 -81 16 -84 -6 -170 -29 -110 -43 -138 -90 -182 -20 -19 -49 -53
-63 -75 -15 -22 -27 -33 -27 -24 0 9 3 19 7 22 10 11 13 97 3 97 -5 0 -12 -4
-15 -10 -9 -15 -25 -12 -25 5 0 8 -7 15 -15 15 -8 0 -15 -7 -15 -15 0 -9 -9
-5 -27 13 -15 15 -27 30 -25 35 3 10 -12 9 -24 -3 -6 -6 -8 8 -5 38 3 42 2 45
-13 33 -18 -15 -22 -41 -6 -41 6 0 10 -5 10 -11 0 -6 -7 -9 -15 -5 -8 3 -25 1
-37 -4 -22 -8 -21 -9 6 -9 l29 -1 -5 -101 -5 -101 38 6 c37 6 39 5 39 -19 0
-18 5 -25 20 -25 33 0 35 1 32 16 -2 8 2 14 9 14 6 0 8 7 5 16 -3 8 -2 12 4 9
6 -3 10 2 10 11 0 10 3 15 6 11 3 -3 -6 -40 -21 -82 -14 -42 -25 -78 -23 -80
2 -1 35 -21 75 -45 39 -23 74 -48 76 -54 3 -7 -1 -26 -8 -43 -11 -25 -20 -31
-50 -35 -36 -4 -38 -3 -57 41 -11 25 -23 40 -25 33 -3 -6 14 -46 36 -88 23
-42 39 -80 35 -85 -3 -5 -25 -9 -49 -9 -34 0 -45 4 -50 19 -3 11 -12 22 -20
25 -8 3 -15 16 -15 29 0 12 -6 47 -14 77 -13 49 -13 57 1 72 8 9 13 23 10 30
-4 8 -8 5 -13 -10 -5 -16 -12 -21 -25 -17 -12 4 -19 1 -20 -7 0 -7 -4 -3 -9
10 -6 13 -18 22 -30 22 -16 0 -20 5 -15 18 5 17 0 19 -49 17 -31 0 -58 -3 -61
-7 -7 -7 -54 2 -60 13 -3 4 -12 6 -20 3 -8 -4 -12 -10 -9 -15 10 -16 -5 -9
-30 15 l-26 23 23 11 c22 11 22 11 1 11 -26 1 -49 45 -58 111 -5 42 -5 43 8
21 10 -17 15 -20 18 -10 3 8 -3 29 -14 47 -17 28 -17 32 -4 32 11 0 16 9 16
30 0 22 -4 28 -15 24 -9 -4 -15 0 -15 10 0 9 4 15 9 14 5 -2 17 6 26 17 9 11
14 14 10 8 -3 -7 -3 -28 1 -47 6 -32 8 -34 30 -24 27 13 42 5 27 -14 -8 -9 -7
-32 2 -73 11 -55 13 -58 20 -31 l8 29 73 -7 c44 -4 74 -3 74 3 0 5 -7 12 -16
15 -9 4 -14 13 -10 21 3 8 0 15 -6 15 -6 0 -3 9 7 20 13 14 16 28 11 55 -6 29
-4 35 11 35 13 0 14 3 5 12 -7 7 -12 24 -12 40 0 15 -4 37 -9 50 -5 13 -12 32
-16 42 -9 29 -28 5 -34 -46 -5 -38 -9 -43 -33 -46 -25 -3 -28 0 -28 27 0 16
-5 33 -10 36 -6 4 -8 10 -6 14 6 9 -19 96 -36 129 -8 16 -9 25 -1 30 6 4 -5
22 -28 45 -39 37 -39 37 -39 12 0 -18 -4 -24 -12 -19 -8 5 -9 2 -5 -10 4 -10
7 -22 7 -28 0 -5 7 -3 15 6 8 8 12 23 9 33 -4 12 -3 14 3 5 5 -6 9 -31 9 -54
-1 -34 -6 -45 -25 -54 -19 -10 -27 -10 -38 2 -21 20 -22 18 -18 -23 l5 -38
-10 35 c-6 20 -7 63 -3 100 4 36 7 68 8 72 0 4 -17 25 -38 47 -21 22 -35 45
-32 54 3 7 -1 20 -10 27 -18 15 -20 0 -2 -20 6 -8 0 -4 -16 9 -17 16 -23 27
-16 32 8 5 8 9 -1 14 -7 4 -16 1 -21 -6 -7 -11 -9 -11 -9 -1 0 10 -5 10 -22 1
l-23 -12 20 24 c68 82 106 88 164 26 22 -24 60 -53 83 -66 l43 -23 -35 31
c-19 17 -38 31 -41 31 -4 0 -18 18 -33 41 -15 22 -41 46 -57 53 l-30 12 22 19
c12 12 35 20 58 20 31 0 50 -10 107 -57 73 -59 173 -122 181 -114 3 3 -17 18
-43 34 -56 34 -183 133 -184 144 0 14 55 37 88 38 18 0 43 -5 54 -11z m-2806
-69 c60 -45 77 -67 98 -127 42 -120 25 -179 -52 -176 -23 1 -51 7 -62 13 -25
14 -59 83 -60 122 0 15 -4 30 -10 33 -16 10 -12 -40 6 -87 23 -57 60 -96 101
-104 81 -15 127 33 120 126 -2 30 -2 45 0 33 3 -13 11 -23 18 -23 8 0 21 -10
28 -22 8 -13 37 -60 65 -105 62 -97 93 -173 90 -217 -1 -17 2 -38 6 -46 4 -8
0 -6 -8 5 -9 11 -14 25 -11 33 2 7 -1 12 -8 10 -6 -1 -23 4 -37 12 -17 9 -65
15 -145 16 -134 3 -213 22 -302 74 -88 51 -153 169 -153 278 0 80 14 123 54
161 65 63 172 59 262 -9z m823 -225 l24 -20 -12 23 c-7 13 -11 25 -9 28 2 2
21 -35 42 -82 21 -46 40 -83 43 -81 2 3 -8 35 -21 73 -14 37 -23 70 -22 72 2
2 20 -21 39 -50 42 -63 265 -287 328 -329 24 -16 52 -27 63 -25 11 3 32 -8 54
-27 52 -46 102 -100 98 -104 -9 -9 -196 -51 -213 -48 -78 16 -68 5 -231 253
-19 29 -37 50 -40 48 -5 -6 47 -98 95 -171 l33 -50 -35 -8 c-28 -7 -56 -2
-137 23 -122 38 -164 59 -198 95 -22 24 -23 27 -8 36 31 17 40 74 37 222 -2
78 0 148 5 155 8 14 14 11 65 -33z m744 29 c33 -8 82 -26 108 -39 51 -26 209
-142 208 -153 0 -4 -8 -38 -19 -77 l-18 -70 -37 1 c-54 2 -70 23 -19 26 24 1
12 4 -31 7 -56 5 -70 10 -73 24 -2 11 3 17 13 17 14 0 15 3 5 15 -9 11 -34 15
-94 15 -54 0 -89 5 -101 14 -16 12 -4 15 99 26 65 7 113 16 107 19 -6 4 -57 1
-113 -6 -120 -14 -173 -16 -118 -2 19 4 76 13 125 20 53 7 82 15 72 18 -22 8
-164 -4 -223 -19 -43 -10 -115 4 -97 20 4 4 48 17 96 30 48 13 90 27 93 32 8
12 -2 10 -116 -22 -58 -16 -109 -30 -115 -30 -23 1 26 19 113 41 50 13 92 27
92 31 0 13 -23 9 -82 -11 -30 -10 -80 -24 -110 -31 -49 -11 -58 -10 -94 8 -22
11 -46 27 -53 36 -11 13 -7 16 26 24 21 6 76 15 123 20 l85 11 -99 -4 c-54 -2
-95 0 -90 5 25 23 251 26 337 4z m-345 -112 c15 -10 36 -22 46 -26 10 -3 16
-9 13 -12 -3 -3 -20 1 -37 9 -18 10 -27 11 -23 4 4 -7 8 -15 9 -19 1 -5 2 -11
3 -15 1 -5 6 -1 12 7 9 12 10 12 5 -4 -4 -12 4 -30 24 -52 16 -19 30 -30 30
-24 0 5 -9 18 -20 27 -20 18 -28 39 -10 28 6 -3 10 -2 10 4 0 5 -3 11 -7 14
-5 2 -3 2 4 1 6 -2 13 2 15 8 6 16 69 -15 106 -51 33 -33 44 -53 17 -31 -13
11 -18 11 -28 0 -9 -10 -9 -11 0 -6 21 12 37 -32 21 -57 -8 -12 -13 -32 -12
-44 1 -13 -2 -23 -6 -23 -19 0 -143 149 -174 211 -19 38 -33 69 -30 69 3 0 18
-8 32 -18z m-1433 -112 c4 -6 39 -27 78 -46 72 -37 181 -63 267 -64 39 -1 43
-2 28 -14 -10 -7 -15 -16 -12 -19 10 -9 34 4 34 19 0 33 101 10 121 -28 11
-21 11 -22 -4 -9 -18 14 -22 5 -8 -18 5 -7 14 -10 21 -6 9 5 10 2 5 -14 -3
-11 -3 -26 1 -33 5 -7 9 -22 10 -32 3 -42 -50 -214 -70 -228 -6 -4 -8 -8 -4
-8 14 0 -15 -60 -29 -60 -12 0 -13 3 -3 15 6 8 9 19 5 25 -3 5 6 26 21 45 15
20 25 38 22 41 -11 10 -40 -10 -55 -40 -10 -19 -18 -26 -21 -17 -2 7 0 16 5
20 17 10 35 51 23 51 -5 0 -10 -4 -10 -9 0 -12 -240 -13 -280 0 -19 6 -60 16
-90 24 -30 7 -83 23 -118 36 -53 18 -63 26 -58 41 3 14 0 18 -10 14 -22 -8
-57 13 -50 30 8 20 -3 44 -20 44 -8 0 -17 7 -20 15 -4 8 -12 15 -20 15 -8 0
-14 9 -14 19 0 11 -9 26 -20 34 -16 11 -46 66 -38 72 16 10 90 39 163 64 94
32 139 38 150 21z m1665 -73 c0 -5 -5 -5 -10 -2 -12 7 -9 -41 3 -50 4 -3 5 -2
3 1 -3 3 1 12 7 19 10 10 18 5 44 -24 18 -20 32 -41 33 -47 0 -16 30 -40 30
-25 0 6 5 11 11 11 6 0 8 -7 5 -17 -4 -10 -4 -14 -1 -11 4 4 18 3 31 -2 18 -7
22 -6 17 5 -3 8 0 15 6 15 6 0 11 -5 11 -10 0 -7 6 -7 20 0 15 8 20 8 20 -1 0
-6 7 -9 15 -6 16 7 32 -12 19 -22 -5 -3 -9 -10 -10 -16 -2 -21 -29 -75 -39
-79 -17 -6 -100 38 -98 51 2 7 -4 10 -12 7 -9 -4 -15 0 -15 10 0 8 -6 13 -12
11 -16 -6 -110 73 -103 86 4 5 -1 6 -9 3 -9 -3 -16 -1 -16 5 0 6 6 11 13 11 7
0 8 3 2 8 -13 9 -11 29 6 69 12 29 28 29 29 0z m-1021 -205 c75 -110 111 -188
118 -252 3 -33 2 -60 -3 -59 -5 0 -31 14 -59 30 -27 16 -57 32 -65 35 -29 13
-80 55 -91 75 -9 17 -4 42 22 125 18 57 34 104 35 104 2 0 21 -26 43 -58z
m576 -129 c39 -9 72 -19 75 -22 3 -3 10 -6 15 -6 21 0 125 -38 125 -45 0 -18
148 9 273 51 49 16 94 29 101 29 13 0 63 -48 55 -53 -2 -2 -64 -22 -136 -45
-102 -32 -148 -42 -195 -41 -49 1 -57 3 -38 9 19 7 14 8 -22 6 -26 -2 -50 -1
-53 2 -4 4 -12 7 -18 7 -36 1 -116 28 -110 38 3 6 1 7 -5 3 -6 -3 -30 -2 -54
3 -24 6 -60 13 -80 16 -29 4 -42 13 -53 35 -25 48 -29 47 120 13z m-893 -144
c100 -21 119 -38 161 -147 39 -102 43 -117 27 -107 -5 3 -10 -1 -10 -9 0 -12
-10 -9 -42 13 -24 15 -58 33 -76 39 -53 18 -152 24 -207 13 -40 -8 -55 -7 -72
5 -13 8 -23 11 -24 7 0 -5 -8 21 -18 57 -10 37 -14 72 -10 81 7 15 65 41 114
52 38 9 104 7 157 -4z m2601 -78 c-8 -6 -12 -33 -13 -95 -1 -15 -6 -40 -11
-55 -9 -26 -9 -26 16 4 22 27 26 28 40 14 11 -11 14 -24 10 -41 -9 -34 -60
-82 -79 -75 -8 3 -29 28 -47 55 -24 37 -44 55 -78 69 l-46 19 38 23 c20 12 55
37 76 55 26 22 50 33 70 33 18 0 28 -3 24 -6z m228 -56 c15 -62 25 -164 17
-184 -8 -24 -57 -51 -92 -51 -14 0 -37 10 -51 23 l-26 22 27 102 c28 107 42
124 94 120 18 -1 26 -10 31 -32z m-2763 -115 c87 -31 97 -43 178 -238 43 -102
121 -231 222 -366 55 -73 61 -86 37 -86 -8 0 -15 -5 -15 -11 0 -5 5 -7 10 -4
6 4 39 7 74 6 79 0 226 38 326 85 80 38 254 144 335 204 155 115 219 160 222
157 4 -4 -80 -315 -132 -487 -19 -63 -34 -125 -35 -137 0 -29 40 -59 100 -73
28 -7 50 -15 50 -19 0 -4 -17 -21 -37 -37 -20 -16 -75 -62 -122 -102 -191
-164 -493 -331 -734 -407 -117 -37 -158 -30 -224 38 -139 146 -388 527 -533
817 -50 100 -146 337 -171 424 -12 43 19 106 81 163 60 56 66 59 134 84 61 23
148 19 234 -11z m2832 -125 c-19 -159 -70 -567 -84 -670 -8 -60 -20 -171 -26
-245 -23 -274 -45 -347 -127 -421 -70 -63 -150 -120 -184 -129 -84 -24 -290
72 -444 207 -65 58 -187 194 -235 263 -20 30 -50 67 -65 83 -15 15 -25 27 -22
27 20 0 353 -64 399 -76 12 -4 21 -24 29 -65 16 -81 29 -84 29 -6 0 91 16 136
132 369 73 146 107 206 117 202 11 -3 11 -1 2 9 -8 11 -7 25 9 59 10 24 28 82
39 129 18 82 23 113 37 251 6 58 9 65 21 52 8 -7 26 -17 40 -20 21 -6 31 -1
49 19 25 29 36 35 29 15 -3 -7 -1 -18 3 -24 10 -15 67 -44 89 -45 10 0 5 -5
-12 -10 -16 -4 -39 -6 -52 -3 -17 5 -22 2 -20 -7 2 -8 2 -11 0 -7 -3 5 -14 3
-26 -3 -19 -9 -18 -7 3 10 14 11 31 21 38 21 7 0 10 5 7 11 -4 6 -13 8 -20 5
-7 -2 -18 1 -24 7 -8 8 -14 8 -23 -1 -9 -9 -8 -12 5 -12 9 0 17 -4 17 -10 0
-16 -20 -12 -52 12 l-30 21 11 -21 c9 -18 9 -21 -3 -16 -8 3 -17 13 -19 22 -8
34 -20 -16 -12 -54 4 -25 10 -34 21 -30 8 3 14 1 14 -4 0 -17 -38 -11 -44 8
-3 9 -4 0 -1 -21 2 -22 0 -35 -6 -32 -8 5 -14 -55 -10 -92 1 -6 -3 -14 -9 -18
-5 -3 -10 -16 -10 -29 0 -12 -7 -44 -16 -70 -15 -44 -15 -48 1 -66 20 -23 37
-25 66 -9 20 10 20 11 2 24 -16 13 -14 14 23 15 l42 0 7 -77 c5 -54 4 -78 -4
-81 -14 -5 -15 -82 -1 -82 6 0 10 -21 10 -46 0 -41 2 -46 20 -41 16 4 20 0 20
-18 0 -13 4 -26 9 -29 11 -7 21 67 21 150 0 57 -2 64 -20 64 -17 0 -20 7 -20
40 l0 40 40 0 40 0 0 40 c0 22 5 40 11 40 11 0 8 -46 -6 -117 -6 -24 -2 -37
13 -53 l20 -22 11 38 c14 49 14 55 0 52 -6 -2 -14 3 -17 11 -3 9 0 12 9 9 11
-4 14 3 11 31 -4 40 18 109 25 78 3 -9 9 -14 15 -11 6 4 8 -2 4 -17 -5 -18 -5
-20 3 -8 13 20 3 59 -15 59 -15 0 -12 25 7 78 11 30 11 35 0 28 -5 -4 -7 4 -3
16 5 21 6 21 13 2 6 -15 8 -13 8 13 1 17 -4 33 -11 35 -7 3 -9 14 -4 31 9 37
30 35 23 -2 -4 -16 -2 -31 4 -33 6 -2 2 -28 -10 -66 -19 -60 -19 -111 0 -80 5
7 6 21 3 30 -3 9 2 32 10 51 8 20 14 62 13 96 -2 43 2 61 11 61 6 0 12 5 12
11 0 6 -9 9 -20 6 -11 -3 -18 -1 -14 4 3 5 -7 9 -21 9 -15 0 -24 -4 -20 -10 3
-5 1 -10 -4 -10 -6 0 -11 4 -11 9 0 5 -6 11 -12 14 -7 2 -6 3 3 2 9 -1 37 19
62 45 26 26 49 45 52 42 3 -3 5 1 5 8 0 7 2 11 4 9 2 -2 1 -35 -4 -74z m-3831
-10 c26 -102 50 -247 60 -355 13 -141 14 -307 2 -315 -12 -7 -57 87 -76 162
-30 114 -40 277 -26 421 8 73 17 132 21 132 4 0 13 -20 19 -45z m321 -56 c0
-39 134 -299 147 -285 2 2 -1 14 -7 26 -22 40 -4 30 36 -20 21 -27 42 -49 46
-50 3 0 2 15 -2 33 -5 17 -13 51 -19 73 -18 69 -16 77 16 60 22 -11 40 -43 85
-147 31 -73 55 -135 53 -137 -2 -2 -65 28 -140 67 -75 39 -142 71 -150 71 -17
0 -49 96 -70 209 -18 97 -19 125 -5 116 6 -3 10 -11 10 -16z m1950 -999 c0
-11 -6 -20 -12 -20 -9 0 -10 -2 -2 -8 14 -9 3 -94 -15 -116 -7 -8 -11 -23 -10
-33 4 -33 -13 -73 -30 -73 -12 0 -22 -14 -31 -39 -7 -22 -19 -42 -27 -45 -8
-3 -11 -10 -8 -16 3 -6 -1 -7 -10 -4 -22 9 -37 41 -30 64 4 12 2 20 -5 20 -7
0 -8 6 -1 19 18 33 -13 42 -63 16 -30 -16 -66 -20 -66 -7 1 22 64 66 83 56 7
-3 -1 5 -17 20 -32 29 -35 30 -56 16 -16 -10 -15 -12 15 -28 20 -11 20 -11 -1
-9 -12 0 -26 8 -32 18 -8 13 -2 21 39 45 27 16 49 33 49 37 0 12 20 -2 20 -14
0 -6 -3 -8 -8 -5 -4 2 -18 -1 -31 -8 -15 -9 -20 -16 -12 -20 6 -4 11 -2 11 4
0 7 6 10 13 7 18 -7 58 28 60 52 0 11 4 18 8 15 9 -5 89 35 89 45 0 4 10 7 21
8 12 1 27 7 32 12 17 17 27 13 27 -9z m-1885 -1134 c-12 -29 -13 -37 -3 -33 7
2 12 10 10 17 -2 8 3 10 13 7 10 -5 15 0 16 16 2 22 2 22 6 -1 3 -17 9 -22 21
-17 28 11 148 18 176 11 17 -4 26 -13 26 -26 0 -21 -11 -31 -43 -35 -63 -7
-128 -17 -175 -26 -83 -16 -99 6 -61 88 24 54 36 53 14 -1z m2920 -80 c33 -49
53 -236 26 -236 -16 0 -61 98 -61 134 0 36 -21 58 -48 49 -11 -4 -11 -1 0 18
36 65 58 74 83 35z"/>
<path d="M3503 4902 c-35 -15 -63 -29 -63 -32 0 -15 129 -61 173 -63 49 -2 50
-1 88 50 l39 52 -33 -1 c-18 -1 -42 4 -54 10 -34 19 -83 13 -150 -16z"/>
</g>
</svg>
